<mxfile host="app.diagrams.net" agent="Mozilla/5.0 (X11; Linux x86_64) AppleWebKit/537.36 (KHTML, like Gecko) Chrome/130.0.0.0 Safari/537.36" version="25.0.1">
  <diagram id="CveNoNUf0CGThfszIA-8" name="Страница — 1">
    <mxGraphModel dx="1710" dy="985" grid="1" gridSize="10" guides="1" tooltips="1" connect="1" arrows="1" fold="1" page="1" pageScale="1" pageWidth="827" pageHeight="1169" math="0" shadow="0">
      <root>
        <mxCell id="0" />
        <mxCell id="1" parent="0" />
        <mxCell id="_LojwVjPKe4OjfMMHTwD-1" value="&lt;font style=&quot;font-size: 14px;&quot;&gt;Клиент&lt;/font&gt;" style="shape=umlActor;verticalLabelPosition=bottom;verticalAlign=top;html=1;outlineConnect=0;strokeWidth=2;rounded=1;" parent="1" vertex="1">
          <mxGeometry x="180" y="440" width="70" height="120" as="geometry" />
        </mxCell>
        <mxCell id="_LojwVjPKe4OjfMMHTwD-3" value="&lt;font style=&quot;font-size: 14px;&quot;&gt;Мониторинг входящих запросов&lt;/font&gt;" style="swimlane;fontStyle=0;childLayout=stackLayout;horizontal=1;startSize=50;horizontalStack=0;resizeParent=1;resizeParentMax=0;resizeLast=0;collapsible=1;marginBottom=0;whiteSpace=wrap;html=1;rounded=1;" parent="1" vertex="1">
          <mxGeometry x="780" y="120" width="190" height="200" as="geometry">
            <mxRectangle x="240" y="60" width="210" height="50" as="alternateBounds" />
          </mxGeometry>
        </mxCell>
        <mxCell id="_LojwVjPKe4OjfMMHTwD-4" value="&lt;font style=&quot;font-size: 14px;&quot; face=&quot;Helvetica&quot;&gt;&lt;font style=&quot;font-size: 14px;&quot;&gt;И:&amp;nbsp;&lt;/font&gt;&lt;/font&gt;&lt;span style=&quot;font-size: 14px; text-align: center; text-wrap-mode: nowrap;&quot;&gt;АСУТ&lt;/span&gt;" style="text;strokeColor=default;fillColor=none;align=left;verticalAlign=middle;spacingLeft=4;spacingRight=4;overflow=hidden;points=[[0,0.5],[1,0.5]];portConstraint=eastwest;rotatable=0;whiteSpace=wrap;html=1;rounded=1;" parent="_LojwVjPKe4OjfMMHTwD-3" vertex="1">
          <mxGeometry y="50" width="190" height="50" as="geometry" />
        </mxCell>
        <mxCell id="_LojwVjPKe4OjfMMHTwD-5" value="&lt;font style=&quot;font-size: 14px;&quot; face=&quot;Helvetica&quot;&gt;&lt;font style=&quot;font-size: 14px;&quot;&gt;СД:&amp;nbsp;&lt;/font&gt;&lt;/font&gt;&lt;span style=&quot;font-size: 15px;&quot;&gt;Системы мониторинга/распределения трафика&lt;/span&gt;" style="text;strokeColor=default;fillColor=none;align=left;verticalAlign=middle;spacingLeft=4;spacingRight=4;overflow=hidden;points=[[0,0.5],[1,0.5]];portConstraint=eastwest;rotatable=0;whiteSpace=wrap;html=1;rounded=1;" parent="_LojwVjPKe4OjfMMHTwD-3" vertex="1">
          <mxGeometry y="100" width="190" height="100" as="geometry" />
        </mxCell>
        <mxCell id="_LojwVjPKe4OjfMMHTwD-9" style="edgeStyle=orthogonalEdgeStyle;rounded=1;orthogonalLoop=1;jettySize=auto;html=1;exitX=1;exitY=0.3333333333333333;exitDx=0;exitDy=0;exitPerimeter=0;entryX=0.25;entryY=0;entryDx=0;entryDy=0;" parent="1" source="_LojwVjPKe4OjfMMHTwD-1" target="_LojwVjPKe4OjfMMHTwD-3" edge="1">
          <mxGeometry relative="1" as="geometry">
            <Array as="points">
              <mxPoint x="150" y="480" />
              <mxPoint x="150" y="50" />
              <mxPoint x="828" y="50" />
              <mxPoint x="828" y="120" />
            </Array>
            <mxPoint x="830" y="110" as="targetPoint" />
          </mxGeometry>
        </mxCell>
        <mxCell id="_LojwVjPKe4OjfMMHTwD-10" value="&lt;span style=&quot;font-size: 14px;&quot;&gt;Запросы клиента&lt;/span&gt;" style="edgeLabel;html=1;align=center;verticalAlign=middle;resizable=0;points=[];rounded=1;" parent="_LojwVjPKe4OjfMMHTwD-9" vertex="1" connectable="0">
          <mxGeometry x="-0.0379" y="2" relative="1" as="geometry">
            <mxPoint x="63" y="2" as="offset" />
          </mxGeometry>
        </mxCell>
        <mxCell id="_LojwVjPKe4OjfMMHTwD-48" style="edgeStyle=orthogonalEdgeStyle;rounded=1;orthogonalLoop=1;jettySize=auto;html=1;exitX=0.011;exitY=0.83;exitDx=0;exitDy=0;entryX=1;entryY=0.5;entryDx=0;entryDy=0;exitPerimeter=0;" parent="1" source="_LojwVjPKe4OjfMMHTwD-13" target="_LojwVjPKe4OjfMMHTwD-30" edge="1">
          <mxGeometry relative="1" as="geometry">
            <Array as="points">
              <mxPoint x="740" y="673" />
              <mxPoint x="740" y="670" />
              <mxPoint x="625" y="670" />
              <mxPoint x="625" y="735" />
            </Array>
          </mxGeometry>
        </mxCell>
        <mxCell id="_LojwVjPKe4OjfMMHTwD-49" value="&lt;span style=&quot;font-size: 15px; text-align: left; text-wrap-mode: wrap; background-color: rgb(251, 251, 251);&quot;&gt;Фоновый мониторинг ошибок&lt;/span&gt;" style="edgeLabel;html=1;align=center;verticalAlign=middle;resizable=0;points=[];rounded=1;" parent="_LojwVjPKe4OjfMMHTwD-48" vertex="1" connectable="0">
          <mxGeometry x="-0.0471" relative="1" as="geometry">
            <mxPoint x="-55" y="42" as="offset" />
          </mxGeometry>
        </mxCell>
        <mxCell id="_LojwVjPKe4OjfMMHTwD-11" value="&lt;font style=&quot;font-size: 14px;&quot;&gt;Формирование ответа&lt;/font&gt;" style="swimlane;fontStyle=0;childLayout=stackLayout;horizontal=1;startSize=60;horizontalStack=0;resizeParent=1;resizeParentMax=0;resizeLast=0;collapsible=1;marginBottom=0;whiteSpace=wrap;html=1;rounded=1;" parent="1" vertex="1">
          <mxGeometry x="740" y="480" width="190" height="210" as="geometry">
            <mxRectangle x="240" y="60" width="210" height="50" as="alternateBounds" />
          </mxGeometry>
        </mxCell>
        <mxCell id="_LojwVjPKe4OjfMMHTwD-12" value="&lt;font style=&quot;font-size: 14px;&quot; face=&quot;Helvetica&quot;&gt;&lt;font style=&quot;font-size: 14px;&quot;&gt;И:&amp;nbsp;&lt;/font&gt;&lt;/font&gt;&lt;span style=&quot;font-size: 14px; text-align: center; text-wrap-mode: nowrap;&quot;&gt;АСУТ&lt;/span&gt;" style="text;strokeColor=default;fillColor=none;align=left;verticalAlign=middle;spacingLeft=4;spacingRight=4;overflow=hidden;points=[[0,0.5],[1,0.5]];portConstraint=eastwest;rotatable=0;whiteSpace=wrap;html=1;rounded=1;" parent="_LojwVjPKe4OjfMMHTwD-11" vertex="1">
          <mxGeometry y="60" width="190" height="50" as="geometry" />
        </mxCell>
        <mxCell id="_LojwVjPKe4OjfMMHTwD-13" value="&lt;div style=&quot;text-align: left;&quot;&gt;&lt;span style=&quot;font-size: 14px; background-color: initial;&quot;&gt;СД: &lt;/span&gt;&lt;span style=&quot;background-color: initial; font-size: 15px;&quot;&gt;сетевые протоколы&lt;/span&gt;&lt;/div&gt;" style="text;strokeColor=default;fillColor=none;align=left;verticalAlign=middle;spacingLeft=4;spacingRight=4;overflow=hidden;points=[[0,0.5],[1,0.5]];portConstraint=eastwest;rotatable=0;whiteSpace=wrap;html=1;rounded=1;" parent="_LojwVjPKe4OjfMMHTwD-11" vertex="1">
          <mxGeometry y="110" width="190" height="100" as="geometry" />
        </mxCell>
        <mxCell id="_LojwVjPKe4OjfMMHTwD-14" style="edgeStyle=orthogonalEdgeStyle;rounded=1;orthogonalLoop=1;jettySize=auto;html=1;exitX=1;exitY=0.5;exitDx=0;exitDy=0;entryX=1;entryY=0.5;entryDx=0;entryDy=0;" parent="1" source="_LojwVjPKe4OjfMMHTwD-5" target="_LojwVjPKe4OjfMMHTwD-11" edge="1">
          <mxGeometry relative="1" as="geometry" />
        </mxCell>
        <mxCell id="_LojwVjPKe4OjfMMHTwD-16" value="&lt;span style=&quot;font-size: 14px;&quot;&gt;Тип сетевого протокола&lt;/span&gt;" style="edgeLabel;html=1;align=center;verticalAlign=middle;resizable=0;points=[];rounded=1;" parent="_LojwVjPKe4OjfMMHTwD-14" vertex="1" connectable="0">
          <mxGeometry x="0.6612" y="-1" relative="1" as="geometry">
            <mxPoint x="1" y="-138" as="offset" />
          </mxGeometry>
        </mxCell>
        <mxCell id="_LojwVjPKe4OjfMMHTwD-52" style="edgeStyle=orthogonalEdgeStyle;rounded=1;orthogonalLoop=1;jettySize=auto;html=1;entryX=0;entryY=0.5;entryDx=0;entryDy=0;" parent="1" source="_LojwVjPKe4OjfMMHTwD-30" edge="1" target="_LojwVjPKe4OjfMMHTwD-12">
          <mxGeometry relative="1" as="geometry">
            <mxPoint x="430" y="250" as="targetPoint" />
          </mxGeometry>
        </mxCell>
        <mxCell id="_LojwVjPKe4OjfMMHTwD-53" value="&lt;span style=&quot;font-size: 15px; text-align: left; text-wrap-mode: wrap; background-color: rgb(251, 251, 251);&quot;&gt;Сообщение об ошибке&lt;/span&gt;" style="edgeLabel;html=1;align=center;verticalAlign=middle;resizable=0;points=[];rounded=1;" parent="_LojwVjPKe4OjfMMHTwD-52" vertex="1" connectable="0">
          <mxGeometry x="0.0364" y="2" relative="1" as="geometry">
            <mxPoint x="-72" y="2" as="offset" />
          </mxGeometry>
        </mxCell>
        <mxCell id="_LojwVjPKe4OjfMMHTwD-30" value="&lt;font style=&quot;font-size: 14px;&quot;&gt;Мониторинг ошибок&lt;/font&gt;" style="swimlane;fontStyle=0;childLayout=stackLayout;horizontal=1;startSize=60;horizontalStack=0;resizeParent=1;resizeParentMax=0;resizeLast=0;collapsible=1;marginBottom=0;whiteSpace=wrap;html=1;rounded=1;" parent="1" vertex="1">
          <mxGeometry x="319" y="630" width="190" height="210" as="geometry">
            <mxRectangle x="240" y="60" width="210" height="50" as="alternateBounds" />
          </mxGeometry>
        </mxCell>
        <mxCell id="_LojwVjPKe4OjfMMHTwD-31" value="&lt;font style=&quot;font-size: 14px;&quot; face=&quot;Helvetica&quot;&gt;&lt;font style=&quot;font-size: 14px;&quot;&gt;И:&amp;nbsp;&lt;/font&gt;&lt;/font&gt;&lt;span style=&quot;font-size: 14px; text-align: center; text-wrap-mode: nowrap;&quot;&gt;АСУТ&lt;/span&gt;" style="text;strokeColor=default;fillColor=none;align=left;verticalAlign=middle;spacingLeft=4;spacingRight=4;overflow=hidden;points=[[0,0.5],[1,0.5]];portConstraint=eastwest;rotatable=0;whiteSpace=wrap;html=1;rounded=1;" parent="_LojwVjPKe4OjfMMHTwD-30" vertex="1">
          <mxGeometry y="60" width="190" height="50" as="geometry" />
        </mxCell>
        <mxCell id="_LojwVjPKe4OjfMMHTwD-32" value="&lt;div style=&quot;&quot;&gt;&lt;span style=&quot;font-size: 14px; background-color: initial;&quot;&gt;СД:&amp;nbsp;&lt;/span&gt;&lt;span style=&quot;font-size: 15px; background-color: initial;&quot;&gt;системы мониторинга ошибок&lt;/span&gt;&lt;/div&gt;" style="text;strokeColor=default;fillColor=none;align=left;verticalAlign=middle;spacingLeft=4;spacingRight=4;overflow=hidden;points=[[0,0.5],[1,0.5]];portConstraint=eastwest;rotatable=0;whiteSpace=wrap;html=1;rounded=1;" parent="_LojwVjPKe4OjfMMHTwD-30" vertex="1">
          <mxGeometry y="110" width="190" height="100" as="geometry" />
        </mxCell>
        <mxCell id="_LojwVjPKe4OjfMMHTwD-45" style="edgeStyle=orthogonalEdgeStyle;rounded=1;orthogonalLoop=1;jettySize=auto;html=1;exitX=1;exitY=0.5;exitDx=0;exitDy=0;entryX=1.024;entryY=0.724;entryDx=0;entryDy=0;entryPerimeter=0;" parent="1" source="_LojwVjPKe4OjfMMHTwD-3" target="_LojwVjPKe4OjfMMHTwD-32" edge="1">
          <mxGeometry relative="1" as="geometry">
            <Array as="points">
              <mxPoint x="1090" y="220" />
              <mxPoint x="1090" y="812" />
            </Array>
          </mxGeometry>
        </mxCell>
        <mxCell id="_LojwVjPKe4OjfMMHTwD-46" value="&lt;div style=&quot;text-align: left;&quot;&gt;&lt;span style=&quot;font-size: 15px; text-wrap-mode: wrap; background-color: rgb(251, 251, 251);&quot;&gt;Фоновый мониторинг ошибок&lt;/span&gt;&lt;/div&gt;" style="edgeLabel;html=1;align=center;verticalAlign=middle;resizable=0;points=[];rounded=1;" parent="_LojwVjPKe4OjfMMHTwD-45" vertex="1" connectable="0">
          <mxGeometry x="0.5181" y="1" relative="1" as="geometry">
            <mxPoint as="offset" />
          </mxGeometry>
        </mxCell>
        <mxCell id="_LojwVjPKe4OjfMMHTwD-50" style="edgeStyle=orthogonalEdgeStyle;rounded=1;orthogonalLoop=1;jettySize=auto;html=1;exitX=0;exitY=0.25;exitDx=0;exitDy=0;entryX=0.5;entryY=0;entryDx=0;entryDy=0;entryPerimeter=0;" parent="1" source="_LojwVjPKe4OjfMMHTwD-11" target="_LojwVjPKe4OjfMMHTwD-1" edge="1">
          <mxGeometry relative="1" as="geometry">
            <Array as="points">
              <mxPoint x="580" y="533" />
              <mxPoint x="580" y="200" />
              <mxPoint x="215" y="200" />
            </Array>
            <mxPoint x="480" y="210" as="targetPoint" />
          </mxGeometry>
        </mxCell>
        <mxCell id="_LojwVjPKe4OjfMMHTwD-51" value="&lt;div style=&quot;text-align: left;&quot;&gt;&lt;span style=&quot;font-size: 14px; text-align: center;&quot;&gt;Ответы системы&lt;/span&gt;&lt;/div&gt;" style="edgeLabel;html=1;align=center;verticalAlign=middle;resizable=0;points=[];rounded=1;" parent="_LojwVjPKe4OjfMMHTwD-50" vertex="1" connectable="0">
          <mxGeometry x="-0.1434" y="1" relative="1" as="geometry">
            <mxPoint as="offset" />
          </mxGeometry>
        </mxCell>
      </root>
    </mxGraphModel>
  </diagram>
</mxfile>
